<svg id="visual" viewBox="0 0 900 100" width="900" height="100" xmlns="http://www.w3.org/2000/svg" xmlns:xlink="http://www.w3.org/1999/xlink" version="1.1"><rect x="0" y="0" width="900" height="100" fill="#e6e6e6"></rect><path d="M0 22L12.5 25.5C25 29 50 36 75 36C100 36 125 29 150 29.8C175 30.7 200 39.3 225 43.7C250 48 275 48 300 46.2C325 44.3 350 40.7 375 35.2C400 29.7 425 22.3 450 24.2C475 26 500 37 525 43.5C550 50 575 52 600 51.8C625 51.7 650 49.3 675 47.5C700 45.7 725 44.3 750 44.7C775 45 800 47 825 46.5C850 46 875 43 887.5 41.5L900 40L900 101L887.5 101C875 101 850 101 825 101C800 101 775 101 750 101C725 101 700 101 675 101C650 101 625 101 600 101C575 101 550 101 525 101C500 101 475 101 450 101C425 101 400 101 375 101C350 101 325 101 300 101C275 101 250 101 225 101C200 101 175 101 150 101C125 101 100 101 75 101C50 101 25 101 12.5 101L0 101Z" fill="#afcbea"></path><path d="M0 41L12.5 40.3C25 39.7 50 38.3 75 41.2C100 44 125 51 150 55.3C175 59.7 200 61.3 225 61.7C250 62 275 61 300 61.2C325 61.3 350 62.7 375 59.5C400 56.3 425 48.7 450 48.5C475 48.3 500 55.7 525 55.8C550 56 575 49 600 44.7C625 40.3 650 38.7 675 42.5C700 46.3 725 55.7 750 56.2C775 56.7 800 48.3 825 45.2C850 42 875 44 887.5 45L900 46L900 101L887.5 101C875 101 850 101 825 101C800 101 775 101 750 101C725 101 700 101 675 101C650 101 625 101 600 101C575 101 550 101 525 101C500 101 475 101 450 101C425 101 400 101 375 101C350 101 325 101 300 101C275 101 250 101 225 101C200 101 175 101 150 101C125 101 100 101 75 101C50 101 25 101 12.5 101L0 101Z" fill="#87b8f1"></path><path d="M0 78L12.5 73.8C25 69.7 50 61.3 75 61.2C100 61 125 69 150 68.5C175 68 200 59 225 57.8C250 56.7 275 63.3 300 64.7C325 66 350 62 375 59.5C400 57 425 56 450 56.3C475 56.7 500 58.3 525 59.3C550 60.3 575 60.7 600 62.2C625 63.7 650 66.3 675 65C700 63.7 725 58.3 750 57.8C775 57.3 800 61.7 825 63C850 64.3 875 62.7 887.5 61.8L900 61L900 101L887.5 101C875 101 850 101 825 101C800 101 775 101 750 101C725 101 700 101 675 101C650 101 625 101 600 101C575 101 550 101 525 101C500 101 475 101 450 101C425 101 400 101 375 101C350 101 325 101 300 101C275 101 250 101 225 101C200 101 175 101 150 101C125 101 100 101 75 101C50 101 25 101 12.5 101L0 101Z" fill="#5ea4f7"></path><path d="M0 89L12.5 85.7C25 82.3 50 75.7 75 74.8C100 74 125 79 150 81.5C175 84 200 84 225 81.3C250 78.7 275 73.3 300 71.5C325 69.7 350 71.3 375 72C400 72.7 425 72.3 450 71.7C475 71 500 70 525 73C550 76 575 83 600 83.3C625 83.7 650 77.3 675 76.5C700 75.7 725 80.3 750 82.5C775 84.7 800 84.3 825 84.8C850 85.3 875 86.7 887.5 87.3L900 88L900 101L887.5 101C875 101 850 101 825 101C800 101 775 101 750 101C725 101 700 101 675 101C650 101 625 101 600 101C575 101 550 101 525 101C500 101 475 101 450 101C425 101 400 101 375 101C350 101 325 101 300 101C275 101 250 101 225 101C200 101 175 101 150 101C125 101 100 101 75 101C50 101 25 101 12.5 101L0 101Z" fill="#268ffc"></path></svg>